# Blender v2.93.5 OBJ File: 'block.blend'
# www.blender.org
mtllib block.mtl
o Cube_Cube.001
v -0.092075 -0.016871 -0.029188
v 0.092075 -0.016871 -0.029188
v 0.092075 -0.016871 0.029188
v -0.092075 -0.016871 0.029188
v -0.092075 0.016871 0.029188
v 0.092075 0.016871 0.029188
v 0.092075 0.016871 -0.029188
v -0.092075 0.016871 -0.029188
v -0.092075 -0.017770 0.027711
v -0.092075 0.017770 0.027711
v -0.092075 -0.017770 -0.027711
v -0.092075 0.017770 -0.027711
v 0.092075 -0.017770 0.027711
v 0.092075 0.017770 0.027711
v 0.092075 -0.017770 -0.027711
v 0.092075 0.017770 -0.027711
vt 1.419353 1.268940
vt 2.108241 1.268940
vt 2.108241 1.994537
vt 1.419353 1.994537
vt 1.400998 0.561697
vt 1.419353 0.543342
vt 2.117418 0.552520
vt 2.126596 0.561697
vt 2.126595 1.250585
vt 1.410176 1.259762
vt 1.400998 1.250585
vt 2.126595 -0.182255
vt 2.126595 0.543342
vt 2.117418 0.543342
vt 2.117418 -0.182255
vt 2.852193 0.561697
vt 2.852193 1.250585
vt 1.400998 -0.889498
vt 1.419353 -0.907853
vt 2.117418 -0.898676
vt 2.126596 -0.889498
vt 2.126595 -0.200611
vt 2.108241 -0.182255
vt 1.410176 -0.191433
vt 1.400998 -0.200611
vt 1.419353 -0.182255
vt 2.108241 0.543342
vt 0.675400 0.561697
vt 0.675400 1.250585
vt 2.126595 1.268940
vt 2.126595 1.994537
vt 2.117418 1.994537
vt 2.117418 1.268940
vt 1.400998 1.259762
vt 0.675400 1.259762
vt 0.675400 0.552520
vt 1.400998 0.552520
vn 0.0000 0.0000 1.0000
vn 1.0000 0.0000 0.0000
vn 0.0000 0.8541 -0.5200
vn 0.0000 1.0000 0.0000
vn -1.0000 0.0000 0.0000
vn 0.0000 0.0000 -1.0000
vn 0.0000 -1.0000 0.0000
vn 0.0000 0.8541 0.5200
vn 0.0000 -0.8541 0.5200
vn 0.0000 -0.8541 -0.5200
usemtl Material.001
s off
f 3/1/1 6/2/1 5/3/1 4/4/1
f 15/5/2 2/6/2 7/7/2 16/8/2 14/9/2 6/2/2 3/10/2 13/11/2
f 12/12/3 16/13/3 7/14/3 8/15/3
f 16/8/4 12/16/4 10/17/4 14/9/4
f 9/18/5 4/19/5 5/20/5 10/21/5 12/22/5 8/23/5 1/24/5 11/25/5
f 1/26/6 8/23/6 7/27/6 2/6/6
f 11/28/7 15/5/7 13/11/7 9/29/7
f 14/30/8 10/31/8 5/32/8 6/33/8
f 9/29/9 13/11/9 3/34/9 4/35/9
f 15/5/10 11/28/10 1/36/10 2/37/10
